<svg xmlns="http://www.w3.org/2000/svg" width="77.862" height="68.116" viewBox="0 0 77.862 68.116">
  <path id="comment-music-thin" d="M23.917,90.233a2.459,2.459,0,0,0-2.265.319,43.242,43.242,0,0,1-7.785,4.379A29.309,29.309,0,0,1,2.433,97.683l.015-.015h0l.046-.046.015-.015c.061-.061.137-.137.228-.243.2-.213.487-.547.821-.958L1.7,94.885l1.855,1.52a30.079,30.079,0,0,0,2.524-3.588A24.8,24.8,0,0,0,9.67,82.19,2.474,2.474,0,0,0,9.077,80.4a25.233,25.233,0,0,1-6.644-16.77c0-15.676,15.843-29.192,36.491-29.192S75.414,47.949,75.414,63.625,59.571,92.818,38.923,92.818A44.1,44.1,0,0,1,23.917,90.233ZM.715,95.965h0A2.408,2.408,0,0,0,.2,98.611a2.434,2.434,0,0,0,2.25,1.505,32.116,32.116,0,0,0,12.407-2.934,45.56,45.56,0,0,0,8.256-4.653A46.553,46.553,0,0,0,38.939,95.25c21.5,0,38.923-14.155,38.923-31.625S60.422,32,38.923,32,0,46.155,0,63.625A27.711,27.711,0,0,0,7.253,82.007,22.133,22.133,0,0,1,4,91.571a27.427,27.427,0,0,1-2.311,3.284c-.319.38-.563.669-.745.867-.091.091-.152.167-.2.213L.7,95.98h0ZM53,45.593a1.233,1.233,0,0,0-1.125-.137l-19.462,7.3a1.234,1.234,0,0,0-.791,1.14V70.041a8.182,8.182,0,0,0-4.865-1.551c-4.029,0-7.3,2.722-7.3,6.082s3.269,6.082,7.3,6.082,7.3-2.722,7.3-6.082h0V54.731l17.029-6.386V65.161a8.182,8.182,0,0,0-4.865-1.551c-4.029,0-7.3,2.722-7.3,6.082s3.269,6.082,7.3,6.082,7.3-2.722,7.3-6.082h0V46.581a1.246,1.246,0,0,0-.517-1ZM46.221,66.058c3.117,0,4.865,2.037,4.865,3.649s-1.749,3.649-4.865,3.649-4.865-2.037-4.865-3.649S43.1,66.058,46.221,66.058ZM26.76,70.923c3.117,0,4.865,2.037,4.865,3.649s-1.749,3.649-4.865,3.649-4.865-2.037-4.865-3.649S23.643,70.923,26.76,70.923Z" transform="translate(0 -32)" fill="#ffd700"/>
</svg>
