<svg xmlns="http://www.w3.org/2000/svg" xmlns:xlink="http://www.w3.org/1999/xlink" width="160.487" height="115.565" viewBox="0 0 160.487 115.565">
  <defs>
    <clipPath id="clip-path">
      <rect id="Rectangle_234" data-name="Rectangle 234" width="160.487" height="115.565" fill="#fff"/>
    </clipPath>
    <linearGradient id="linear-gradient" x1="0.5" x2="0.5" y2="1" gradientUnits="objectBoundingBox">
      <stop offset="0" stop-color="#fff"/>
      <stop offset="1" stop-color="#fff" stop-opacity="0"/>
    </linearGradient>
  </defs>
  <g id="Group_127" data-name="Group 127" transform="translate(0)" opacity="0.35" style="mix-blend-mode: normal;isolation: isolate">
    <g id="Group_119" data-name="Group 119" transform="translate(0)" clip-path="url(#clip-path)">
      <path id="Path_79" data-name="Path 79" d="M59.456,88.823H35.2a1.611,1.611,0,0,1-1.552-2.042L36.971,74.82a1.616,1.616,0,0,1,1.552-1.18H61.449a1.611,1.611,0,0,1,1.589,1.876L61.045,87.477a1.606,1.606,0,0,1-1.589,1.346m-20.932-14.2a.627.627,0,0,0-.6.458L34.6,87.045a.625.625,0,0,0,.6.792H59.456a.623.623,0,0,0,.616-.522l1.994-11.962a.625.625,0,0,0-.616-.728Z" transform="translate(-20.342 -44.598)" fill="#fff"/>
      <path id="Path_80" data-name="Path 80" d="M175.744,55.519a290.109,290.109,0,0,1-45.791-3.64l-3.575-.571a1.6,1.6,0,0,1-1.343-1.8l4.672-35.956a1.614,1.614,0,0,1,1.6-1.4H152.66a1.613,1.613,0,0,1,1.611,1.611v2.614A.625.625,0,0,0,154.9,17h33.289a.625.625,0,0,0,.617-.722l-.3-1.915a1.611,1.611,0,0,1,1.592-1.861h21.833a1.616,1.616,0,0,1,1.55,1.173l10.184,36.061a1.611,1.611,0,0,1-1.31,2.031l-3.247.491a290.176,290.176,0,0,1-43.36,3.261M130.684,13.68l-4.672,35.956a.622.622,0,0,0,.521.7l3.575.571a288.88,288.88,0,0,0,88.848.377l3.247-.491a.625.625,0,0,0,.508-.788L212.528,13.944a.628.628,0,0,0-.6-.455H190.094a.625.625,0,0,0-.618.722l.3,1.915a1.611,1.611,0,0,1-1.591,1.861H154.9a1.613,1.613,0,0,1-1.611-1.611V13.761a.625.625,0,0,0-.625-.625H131.3A.626.626,0,0,0,130.684,13.68Z" transform="translate(-75.716 -7.358)" fill="#fff"/>
      <path id="Path_81" data-name="Path 81" d="M42.146,206.567a.493.493,0,0,1-.451-.293L17.18,150.954a.493.493,0,1,1,.9-.4L42.6,205.874a.493.493,0,0,1-.45.693" transform="translate(-10.379 -91.002)" fill="url(#linear-gradient)"/>
      <path id="Path_82" data-name="Path 82" d="M327.8,206.567a.493.493,0,0,1-.45-.693l24.515-55.32a.493.493,0,1,1,.9.4l-24.515,55.32a.493.493,0,0,1-.451.293" transform="translate(-198.228 -91.002)" fill="url(#linear-gradient)"/>
      <path id="Path_83" data-name="Path 83" d="M156.637,60.246H3.85a3.846,3.846,0,0,1-3.669-5L16.488,3.474A4.945,4.945,0,0,1,21.223,0H139.264A4.945,4.945,0,0,1,144,3.474l16.307,51.769a3.847,3.847,0,0,1-3.669,5M21.223.987A3.962,3.962,0,0,0,17.429,3.77L1.122,55.54A2.861,2.861,0,0,0,3.85,59.26H156.637a2.861,2.861,0,0,0,2.728-3.72L143.059,3.77A3.963,3.963,0,0,0,139.264.987Z" transform="translate(0 -0.001)" fill="#fff"/>
      <path id="Path_84" data-name="Path 84" d="M118.572,65a1.518,1.518,0,1,1,1.819-1.488A1.66,1.66,0,0,1,118.572,65m0-1.989c-.477,0-.833.265-.833.5s.357.5.833.5.833-.265.833-.5-.357-.5-.833-.5" transform="translate(-70.709 -37.562)" fill="#fff"/>
      <path id="Path_85" data-name="Path 85" d="M120.172,65.093a.492.492,0,0,1-.349-.144l-1.632-1.632a.493.493,0,0,1,.7-.7l1.632,1.632a.493.493,0,0,1-.349.842" transform="translate(-71.493 -37.837)" fill="#fff"/>
      <path id="Path_86" data-name="Path 86" d="M118.658,65.118a.493.493,0,0,1-.349-.842l1.54-1.539a.493.493,0,0,1,.7.7l-1.539,1.54a.491.491,0,0,1-.349.144" transform="translate(-71.564 -37.908)" fill="#fff"/>
      <path id="Path_87" data-name="Path 87" d="M18.589,126.6a1.767,1.767,0,1,1,0-3.455,1.767,1.767,0,1,1,0,3.455m0-2.469c-.614,0-1.153.347-1.153.741s.539.742,1.153.742,1.153-.347,1.153-.742-.539-.741-1.153-.741" transform="translate(-9.963 -74.581)" fill="#fff"/>
      <path id="Path_88" data-name="Path 88" d="M20.574,126.721a.491.491,0,0,1-.349-.144L18.2,124.552a.493.493,0,1,1,.7-.7l2.025,2.025a.493.493,0,0,1-.349.842" transform="translate(-10.935 -74.922)" fill="#fff"/>
      <path id="Path_89" data-name="Path 89" d="M18.695,126.752a.493.493,0,0,1-.349-.842L20.257,124a.493.493,0,0,1,.7.7l-1.911,1.911a.492.492,0,0,1-.349.144" transform="translate(-11.024 -75.01)" fill="#fff"/>
      <path id="Path_90" data-name="Path 90" d="M381.784,126.6a1.767,1.767,0,1,1,2.139-1.728,1.969,1.969,0,0,1-2.139,1.728m0-2.469c-.614,0-1.153.347-1.153.741s.539.742,1.153.742,1.153-.347,1.153-.742-.539-.741-1.153-.741" transform="translate(-229.924 -74.581)" fill="#fff"/>
      <path id="Path_91" data-name="Path 91" d="M383.77,126.721a.491.491,0,0,1-.349-.144l-2.025-2.025a.493.493,0,1,1,.7-.7l2.025,2.025a.493.493,0,0,1-.349.842" transform="translate(-230.897 -74.922)" fill="#fff"/>
      <path id="Path_92" data-name="Path 92" d="M381.89,126.752a.493.493,0,0,1-.349-.842L383.452,124a.493.493,0,0,1,.7.7l-1.911,1.911a.491.491,0,0,1-.349.144" transform="translate(-230.985 -75.01)" fill="#fff"/>
      <path id="Path_93" data-name="Path 93" d="M353.318,15.94a1.419,1.419,0,0,1-1.548-1.284,1.575,1.575,0,0,1,3.1,0,1.419,1.419,0,0,1-1.548,1.284m0-1.582c-.338,0-.562.179-.562.3s.224.3.562.3.562-.179.562-.3-.224-.3-.562-.3" transform="translate(-213.042 -8.098)" fill="#fff"/>
      <path id="Path_94" data-name="Path 94" d="M354.591,16.016a.491.491,0,0,1-.349-.144l-1.3-1.3a.493.493,0,0,1,.7-.7l1.3,1.3a.493.493,0,0,1-.349.842" transform="translate(-213.666 -8.317)" fill="#fff"/>
      <path id="Path_95" data-name="Path 95" d="M353.386,16.037a.493.493,0,0,1-.349-.842l1.225-1.224a.493.493,0,1,1,.7.7l-1.224,1.225a.492.492,0,0,1-.349.144" transform="translate(-213.722 -8.374)" fill="#fff"/>
      <path id="Path_96" data-name="Path 96" d="M48.871,15.94a1.419,1.419,0,0,1-1.548-1.284,1.575,1.575,0,0,1,3.1,0,1.419,1.419,0,0,1-1.548,1.284m0-1.582c-.338,0-.562.179-.562.3s.224.3.562.3.562-.179.562-.3-.224-.3-.562-.3" transform="translate(-28.66 -8.098)" fill="#fff"/>
      <path id="Path_97" data-name="Path 97" d="M50.143,16.016a.491.491,0,0,1-.349-.144l-1.3-1.3a.493.493,0,0,1,.7-.7l1.3,1.3a.493.493,0,0,1-.349.842" transform="translate(-29.284 -8.317)" fill="#fff"/>
      <path id="Path_98" data-name="Path 98" d="M48.939,16.037a.493.493,0,0,1-.349-.842l1.225-1.224a.493.493,0,1,1,.7.7l-1.224,1.225a.491.491,0,0,1-.349.144" transform="translate(-29.34 -8.374)" fill="#fff"/>
    </g>
  </g>
</svg>
