<svg xmlns="http://www.w3.org/2000/svg" xmlns:xlink="http://www.w3.org/1999/xlink" width="163.409" height="130.234" viewBox="0 0 163.409 130.234">
  <defs>
    <clipPath id="clip-path">
      <rect id="Rectangle_233" data-name="Rectangle 233" width="163.409" height="130.234" fill="#fff"/>
    </clipPath>
  </defs>
  <g id="Group_118" data-name="Group 118" opacity="0.65" style="mix-blend-mode: normal;isolation: isolate">
    <g id="Group_117" data-name="Group 117" clip-path="url(#clip-path)">
      <path id="Path_50" data-name="Path 50" d="M158.45,207.241H20.718a2,2,0,0,1-2-2V168.038h-.08a1.8,1.8,0,0,1-1.8-1.8V151.523H20.4a1.908,1.908,0,0,0,1.861-1.517l3.106-15.064a3.86,3.86,0,0,1,3.767-3.069H42.823a3.855,3.855,0,0,1,3.709,2.827l4.186,15.238a1.9,1.9,0,0,0,1.832,1.4h3.52v14.049l.824-2.081V128.676a1.525,1.525,0,0,1,1.523-1.523H73.933a2.715,2.715,0,0,1,1.777.662l82.74,71.608Zm-138.743-39.2v37.207a1.011,1.011,0,0,0,1.01,1.01H157.464v-6.382l-82.4-71.313a1.729,1.729,0,0,0-1.131-.422H58.417a.538.538,0,0,0-.537.537v34.815L56.529,166.9a1.788,1.788,0,0,1-1.671,1.136Zm-1.877-15.53v13.732a.812.812,0,0,0,.812.812H54.858a.814.814,0,0,0,.226-.032v-14.7H52.55a2.893,2.893,0,0,1-2.783-2.122l-4.185-15.238a2.867,2.867,0,0,0-2.758-2.1H29.13a2.871,2.871,0,0,0-2.8,2.283l-3.106,15.064a2.9,2.9,0,0,1-2.827,2.3Z" transform="translate(-10.201 -77.007)" fill="#fff"/>
      <path id="Path_51" data-name="Path 51" d="M219.315,189.751l-5.8-13.594L139.471,111.9a1.746,1.746,0,0,0-1.144-.427H124.771a1.752,1.752,0,0,0-1.507.864l-3.506,5.989-.851-.5,3.506-5.989a2.742,2.742,0,0,1,2.358-1.352h13.556a2.733,2.733,0,0,1,1.791.668l74.213,64.4,5.892,13.8Z" transform="translate(-72.013 -66.916)" fill="#fff"/>
      <rect id="Rectangle_230" data-name="Rectangle 230" width="7.062" height="0.986" transform="translate(63.982 50.574) rotate(-68.433)" fill="#fff"/>
      <path id="Path_52" data-name="Path 52" d="M17.89,132.831l-.761-.627,2.095-2.544,3.325-24.4,15.63-9.9a2.6,2.6,0,0,1,1.395-.4h30.21a1.592,1.592,0,0,1,1.056.4l4.384,3.878a1.594,1.594,0,0,1,.538,1.193v1.147h-.986V100.43a.607.607,0,0,0-.2-.455L70.186,96.1a.606.606,0,0,0-.4-.152H39.574a1.619,1.619,0,0,0-.867.251l-15.242,9.657-3.3,24.218Z" transform="translate(-10.374 -57.51)" fill="#fff"/>
      <path id="Path_53" data-name="Path 53" d="M139.523,106.733l-.865-.473a70.464,70.464,0,0,0,8.605-33.709c0-39.461-32.81-71.566-73.138-71.566S.986,33.09.986,72.551a70.479,70.479,0,0,0,8.46,33.443l-.867.469A71.469,71.469,0,0,1,0,72.551C0,32.546,33.252,0,74.124,0s74.124,32.546,74.124,72.551a71.453,71.453,0,0,1-8.726,34.181" fill="#fff"/>
      <path id="Path_54" data-name="Path 54" d="M233.576,105.941h-7.224a8.827,8.827,0,0,1-5.171-1.661l-9.569-6.857a7.849,7.849,0,0,0-4.6-1.477H148.983v-.986h58.032a8.829,8.829,0,0,1,5.171,1.661l9.569,6.857a7.847,7.847,0,0,0,4.6,1.477h7.224Z" transform="translate(-90.228 -57.51)" fill="#fff"/>
      <path id="Path_55" data-name="Path 55" d="M20.291,120.294H16.217a7.07,7.07,0,0,1-2.922-.627l-.649-.292.4-.9.649.292a6.089,6.089,0,0,0,2.517.541h4.074Z" transform="translate(-7.659 -71.752)" fill="#fff"/>
      <path id="Path_56" data-name="Path 56" d="M381.168,303.511H368.555v-.986h12.613a2.057,2.057,0,0,0,2.055-2.055,3.141,3.141,0,0,0-.444-1.61l-4.105-6.872a4.234,4.234,0,0,0-2.281-1.84l-6.425-2.167a16.835,16.835,0,0,0-5.388-.884v-.986a17.82,17.82,0,0,1,5.7.935l6.425,2.167a5.221,5.221,0,0,1,2.812,2.268l4.1,6.872a4.13,4.13,0,0,1,.584,2.116,3.044,3.044,0,0,1-3.041,3.041" transform="translate(-220.8 -173.277)" fill="#fff"/>
      <rect id="Rectangle_231" data-name="Rectangle 231" width="3.582" height="0.986" transform="matrix(0.505, -0.863, 0.863, 0.505, 44.951, 74.571)" fill="#fff"/>
      <path id="Path_57" data-name="Path 57" d="M21.738,177.35,21,176.7l2.248-2.548,1.023-5.7H26.53v.986H25.094l-.926,5.163Z" transform="translate(-12.717 -102.015)" fill="#fff"/>
      <rect id="Rectangle_232" data-name="Rectangle 232" width="1.786" height="0.986" transform="translate(11.664 68.105)" fill="#fff"/>
      <path id="Path_58" data-name="Path 58" d="M385.87,320.012a11.1,11.1,0,0,1-1.62-.119l-3.1-.457a10.171,10.171,0,0,0-1.481-.109H374.66v-.986h5.011a11.152,11.152,0,0,1,1.625.12l3.1.457a10.168,10.168,0,0,0,5.063-.545l.348.922a11.151,11.151,0,0,1-3.935.717" transform="translate(-226.904 -192.796)" fill="#fff"/>
      <path id="Path_59" data-name="Path 59" d="M99.687,262.407H98.7V256.9a4,4,0,0,1,.909-2.536l6.174-7.5a3.012,3.012,0,0,0,.685-1.909V219.055h.986v25.893a4,4,0,0,1-.909,2.536l-6.174,7.5a3.012,3.012,0,0,0-.685,1.909Z" transform="translate(-59.776 -132.666)" fill="#fff"/>
      <path id="Path_60" data-name="Path 60" d="M100.785,168.048l-.868-.468,1.37-2.539.465-6.021,0-4.071a.414.414,0,0,0-.414-.414H93.165v-.986h8.173a1.4,1.4,0,0,1,1.4,1.4v4.109l-.483,6.268Z" transform="translate(-56.423 -92.993)" fill="#fff"/>
      <path id="Path_61" data-name="Path 61" d="M189.312,138.928a.684.684,0,0,1-.447-.168l-12.853-11.077a1.358,1.358,0,0,1-.4-1.488l.713-2.023a.687.687,0,0,1,1.1-.289l12.336,10.8a.687.687,0,0,1,.235.517v3.04a.681.681,0,0,1-.4.625.7.7,0,0,1-.289.064M176.979,124.3a.1.1,0,0,0-.025,0,.094.094,0,0,0-.066.061l-.713,2.023a.769.769,0,0,0,.225.844l12.853,11.077a.1.1,0,0,0,.159-.073V135.2a.1.1,0,0,0-.033-.072l-12.337-10.8a.091.091,0,0,0-.062-.024" transform="translate(-106.31 -74.924)" fill="#fff"/>
      <path id="Path_62" data-name="Path 62" d="M223.606,167.2a2.466,2.466,0,0,1-.956-.253,8.959,8.959,0,0,1-2.022-1.327c-1.315-1.111-2.478-2.605-1.924-3.261s2.222.24,3.538,1.351,2.478,2.605,1.924,3.261a.692.692,0,0,1-.56.229m-4.341-4.483a.181.181,0,0,0-.11.025c-.088.159.345,1.152,1.855,2.427s2.554,1.535,2.7,1.421c.086-.166-.349-1.157-1.854-2.428a5.4,5.4,0,0,0-2.595-1.445" transform="translate(-132.368 -98.191)" fill="#fff"/>
      <path id="Path_63" data-name="Path 63" d="M196.47,260.062a1.6,1.6,0,1,1,1.6-1.6,1.606,1.606,0,0,1-1.6,1.6m0-2.617a1.013,1.013,0,1,0,1.012,1.013,1.014,1.014,0,0,0-1.012-1.013" transform="translate(-118.016 -155.557)" fill="#fff"/>
      <path id="Path_64" data-name="Path 64" d="M197.545,260.4H197.2a.674.674,0,0,1-.582-.336l-.172-.3a.674.674,0,0,1,0-.672l.172-.3a.674.674,0,0,1,.582-.336h.343a.675.675,0,0,1,.583.336l.172.3a.674.674,0,0,1,0,.673l-.172.3a.675.675,0,0,1-.583.336m-.343-1.348a.081.081,0,0,0-.07.041l-.172.3a.081.081,0,0,0,0,.081l.172.3a.081.081,0,0,0,.07.041h.343a.081.081,0,0,0,.07-.041l.172-.3a.082.082,0,0,0,0-.081l-.172-.3a.081.081,0,0,0-.07-.041Z" transform="translate(-118.92 -156.532)" fill="#fff"/>
      <path id="Path_65" data-name="Path 65" d="M104.594,321.015a1.6,1.6,0,1,1,1.6-1.6,1.606,1.606,0,0,1-1.6,1.6m0-2.617a1.013,1.013,0,1,0,1.013,1.013,1.014,1.014,0,0,0-1.013-1.013" transform="translate(-62.374 -192.472)" fill="#fff"/>
      <path id="Path_66" data-name="Path 66" d="M105.67,321.354h-.343a.675.675,0,0,1-.582-.336l-.172-.3a.674.674,0,0,1,0-.672l.172-.3a.675.675,0,0,1,.582-.336h.343a.675.675,0,0,1,.583.336l.172.3a.675.675,0,0,1,0,.672l-.172.3a.675.675,0,0,1-.583.336m-.343-1.348a.081.081,0,0,0-.07.041l-.172.3a.08.08,0,0,0,0,.081l.172.3a.081.081,0,0,0,.07.041h.343a.081.081,0,0,0,.071-.041l.172-.3a.083.083,0,0,0,0-.081l-.172-.3a.081.081,0,0,0-.071-.041Z" transform="translate(-63.278 -193.446)" fill="#fff"/>
      <path id="Path_67" data-name="Path 67" d="M345.743,321.015a1.6,1.6,0,1,1,1.6-1.6,1.606,1.606,0,0,1-1.6,1.6m0-2.617a1.013,1.013,0,1,0,1.013,1.013,1.014,1.014,0,0,0-1.013-1.013" transform="translate(-208.42 -192.472)" fill="#fff"/>
      <path id="Path_68" data-name="Path 68" d="M346.819,321.354h-.343a.674.674,0,0,1-.582-.336l-.172-.3a.673.673,0,0,1,0-.672l.172-.3a.674.674,0,0,1,.582-.336h.343a.675.675,0,0,1,.583.336l.172.3a.674.674,0,0,1,0,.672l-.172.3a.675.675,0,0,1-.583.336m-.343-1.348a.081.081,0,0,0-.07.041l-.172.3a.081.081,0,0,0,0,.081l.172.3a.081.081,0,0,0,.07.041h.343a.081.081,0,0,0,.071-.041l.172-.3a.082.082,0,0,0,0-.081l-.172-.3a.081.081,0,0,0-.071-.041Z" transform="translate(-209.324 -193.446)" fill="#fff"/>
      <path id="Path_69" data-name="Path 69" d="M104.594,287.417a1.6,1.6,0,1,1,1.6-1.6,1.606,1.606,0,0,1-1.6,1.6m0-2.617a1.013,1.013,0,1,0,1.013,1.013,1.014,1.014,0,0,0-1.013-1.013" transform="translate(-62.374 -172.124)" fill="#fff"/>
      <path id="Path_70" data-name="Path 70" d="M105.67,287.757h-.343a.675.675,0,0,1-.582-.336l-.172-.3a.674.674,0,0,1,0-.672l.172-.3a.675.675,0,0,1,.582-.336h.343a.675.675,0,0,1,.583.336l.172.3a.675.675,0,0,1,0,.672l-.172.3a.675.675,0,0,1-.583.336m-.343-1.348a.081.081,0,0,0-.07.041l-.172.3a.081.081,0,0,0,0,.081l.172.3a.081.081,0,0,0,.07.041h.343a.081.081,0,0,0,.071-.041l.172-.3a.083.083,0,0,0,0-.081l-.172-.3a.081.081,0,0,0-.071-.041Z" transform="translate(-63.278 -173.099)" fill="#fff"/>
      <path id="Path_71" data-name="Path 71" d="M24.6,207.182a1.6,1.6,0,1,1,1.6-1.6,1.606,1.606,0,0,1-1.6,1.6m0-2.617a1.013,1.013,0,1,0,1.013,1.013,1.014,1.014,0,0,0-1.013-1.013" transform="translate(-13.929 -123.532)" fill="#fff"/>
      <path id="Path_72" data-name="Path 72" d="M25.679,207.522h-.343a.675.675,0,0,1-.582-.336l-.172-.3a.674.674,0,0,1,0-.672l.172-.3a.675.675,0,0,1,.582-.336h.343a.675.675,0,0,1,.583.336l.172.3a.675.675,0,0,1,0,.672l-.172.3a.675.675,0,0,1-.583.336m-.343-1.348a.081.081,0,0,0-.07.041l-.172.3a.081.081,0,0,0,0,.081l.172.3a.081.081,0,0,0,.07.041h.343a.081.081,0,0,0,.071-.041l.172-.3a.083.083,0,0,0,0-.081l-.172-.3a.081.081,0,0,0-.071-.041Z" transform="translate(-14.833 -124.506)" fill="#fff"/>
      <path id="Path_73" data-name="Path 73" d="M104.594,207.182a1.6,1.6,0,1,1,1.6-1.6,1.606,1.606,0,0,1-1.6,1.6m0-2.617a1.013,1.013,0,1,0,1.013,1.013,1.014,1.014,0,0,0-1.013-1.013" transform="translate(-62.374 -123.532)" fill="#fff"/>
      <path id="Path_74" data-name="Path 74" d="M105.67,207.522h-.343a.675.675,0,0,1-.582-.336l-.172-.3a.674.674,0,0,1,0-.672l.172-.3a.675.675,0,0,1,.582-.336h.343a.675.675,0,0,1,.583.336l.172.3a.675.675,0,0,1,0,.672l-.172.3a.675.675,0,0,1-.583.336m-.343-1.348a.081.081,0,0,0-.07.041l-.172.3a.081.081,0,0,0,0,.081l.172.3a.081.081,0,0,0,.07.041h.343a.081.081,0,0,0,.071-.041l.172-.3a.083.083,0,0,0,0-.081l-.172-.3a.081.081,0,0,0-.071-.041Z" transform="translate(-63.278 -124.506)" fill="#fff"/>
      <path id="Path_75" data-name="Path 75" d="M235.07,260.062a1.6,1.6,0,1,1,1.6-1.6,1.606,1.606,0,0,1-1.6,1.6m0-2.617a1.013,1.013,0,1,0,1.013,1.013,1.014,1.014,0,0,0-1.013-1.013" transform="translate(-141.393 -155.557)" fill="#fff"/>
      <path id="Path_76" data-name="Path 76" d="M236.146,260.4H235.8a.675.675,0,0,1-.582-.336l-.172-.3a.673.673,0,0,1,0-.672l.172-.3a.675.675,0,0,1,.582-.336h.343a.675.675,0,0,1,.583.336l.172.3a.675.675,0,0,1,0,.672l-.172.3a.675.675,0,0,1-.583.336m-.343-1.348a.081.081,0,0,0-.07.041l-.172.3a.081.081,0,0,0,0,.081l.172.3a.081.081,0,0,0,.07.041h.343a.081.081,0,0,0,.071-.041l.172-.3a.083.083,0,0,0,0-.081l-.172-.3a.081.081,0,0,0-.071-.041Z" transform="translate(-142.298 -156.532)" fill="#fff"/>
      <path id="Path_77" data-name="Path 77" d="M196.47,231.151a1.6,1.6,0,1,1,1.6-1.6,1.606,1.606,0,0,1-1.6,1.6m0-2.617a1.013,1.013,0,1,0,1.012,1.013,1.014,1.014,0,0,0-1.012-1.013" transform="translate(-118.016 -138.048)" fill="#fff"/>
      <path id="Path_78" data-name="Path 78" d="M197.545,231.491H197.2a.674.674,0,0,1-.582-.336l-.172-.3a.674.674,0,0,1,0-.672l.172-.3a.674.674,0,0,1,.582-.336h.343a.675.675,0,0,1,.583.336l.172.3a.675.675,0,0,1,0,.672l-.172.3a.675.675,0,0,1-.583.336m-.343-1.348a.081.081,0,0,0-.07.041l-.172.3a.08.08,0,0,0,0,.081l.172.3a.081.081,0,0,0,.07.041h.343a.081.081,0,0,0,.07-.041l.172-.3a.082.082,0,0,0,0-.081l-.172-.3a.081.081,0,0,0-.07-.041Z" transform="translate(-118.92 -139.022)" fill="#fff"/>
    </g>
  </g>
</svg>
