<svg xmlns="http://www.w3.org/2000/svg" xmlns:xlink="http://www.w3.org/1999/xlink" width="960" height="960" viewBox="0 0 960 960"><defs><clipPath id="b"><rect width="960" height="960"/></clipPath></defs><g id="a" clip-path="url(#b)"><rect width="960" height="959" rx="150" fill="#03001b"/><g transform="translate(10991.267 296.712)"><path d="M742.149,426.439H705.469A44.972,44.972,0,0,1,660.5,381.467V101.316a44.976,44.976,0,0,1,44.976-44.972h36.677a6.321,6.321,0,0,1,6.319,6.32V82.6a6.321,6.321,0,0,1-6.319,6.32H705.469a12.4,12.4,0,0,0-12.4,12.4V381.467a12.4,12.4,0,0,0,12.4,12.4h36.677a6.321,6.321,0,0,1,6.319,6.32v19.936a6.321,6.321,0,0,1-6.319,6.32" transform="translate(-11585.554 9.561)" fill="gold"/><path d="M798.181,534.223h-62.9A44.977,44.977,0,0,1,690.3,489.247V73.145a44.974,44.974,0,0,1,44.977-44.972h62.9a6.319,6.319,0,0,1,6.32,6.32V54.425a6.322,6.322,0,0,1-6.32,6.323h-62.9a12.4,12.4,0,0,0-12.4,12.4V489.251a12.4,12.4,0,0,0,12.4,12.4h62.9a6.321,6.321,0,0,1,6.32,6.32V527.9a6.321,6.321,0,0,1-6.32,6.319" transform="translate(-11507.483 -64.232)" fill="gold"/><path d="M1075.575,642.008H772.325a44.974,44.974,0,0,1-44.973-44.976V44.976A44.974,44.974,0,0,1,772.325,0h303.25a44.976,44.976,0,0,1,44.973,44.976v7.633a6.32,6.32,0,0,1-6.32,6.323h-19.933a6.322,6.322,0,0,1-6.322-6.323V44.976a12.4,12.4,0,0,0-12.4-12.4H772.325a12.4,12.4,0,0,0-12.4,12.4v552.06a12.4,12.4,0,0,0,12.4,12.4h303.25a12.4,12.4,0,0,0,12.4-12.4V589.4a6.321,6.321,0,0,1,6.322-6.32h19.933a6.32,6.32,0,0,1,6.32,6.32v7.637a44.973,44.973,0,0,1-44.973,44.972" transform="translate(-11410.432 -138.031)" fill="gold"/><path d="M1163.845,23.282H1061.838a6.314,6.314,0,0,0-4.647,2.038L871.03,227.551V29.6a6.315,6.315,0,0,0-6.316-6.316H784a6.315,6.315,0,0,0-6.316,6.316V490.437a6.318,6.318,0,0,0,6.319,6.32h80.707a6.314,6.314,0,0,0,6.316-6.312V346.6l45.315-48.7L1070.7,494.346a6.314,6.314,0,0,0,4.966,2.411h101.522a4.418,4.418,0,0,0,3.485-7.134L979.252,230.935,1167.071,30.727a4.422,4.422,0,0,0-3.227-7.445" transform="translate(-11278.578 -77.045)" fill="#fff"/></g></g></svg>