<svg xmlns="http://www.w3.org/2000/svg" version="1.1" xmlns:xlink="http://www.w3.org/1999/xlink" xmlns:svgjs="http://svgjs.dev/svgjs" width="1024" height="1024"><svg id="SvgjsSvg1013" data-name="Group 225" xmlns="http://www.w3.org/2000/svg" width="1024" height="1024" viewBox="0 0 1024 1024">
  <rect id="SvgjsRect1012" data-name="Rectangle 386" width="1024" height="1024" rx="150" fill="#03001b"></rect>
  <g id="SvgjsG1011" data-name="Group 224" transform="translate(0.172 0.361)">
    <path id="SvgjsPath1010" data-name="Path 147" d="M175.443,784.972H135.577A48.879,48.879,0,0,1,86.7,736.094V431.6a48.88,48.88,0,0,1,48.88-48.88h39.864a6.868,6.868,0,0,1,6.869,6.869V411.26a6.868,6.868,0,0,1-6.869,6.869H135.577A13.473,13.473,0,0,0,122.1,431.6V736.091a13.476,13.476,0,0,0,13.476,13.475h39.863a6.869,6.869,0,0,1,6.869,6.87V778.1a6.869,6.869,0,0,1-6.869,6.869" transform="translate(-24.87 1.565)" fill="#ffd700"></path>
    <path id="SvgjsPath1009" data-name="Path 148" d="M311.592,830.992H243.226a48.882,48.882,0,0,1-48.883-48.882V329.857a48.881,48.881,0,0,1,48.88-48.88h68.369a6.869,6.869,0,0,1,6.869,6.87v21.667a6.869,6.869,0,0,1-6.869,6.869H243.226a13.476,13.476,0,0,0-13.477,13.477V782.112a13.475,13.475,0,0,0,13.475,13.475h68.369a6.869,6.869,0,0,1,6.869,6.87v21.667a6.869,6.869,0,0,1-6.869,6.869" transform="translate(-15.265 -7.515)" fill="#ffd700"></path>
    <path id="SvgjsPath1008" data-name="Path 149" d="M706.635,877.012H377.041a48.882,48.882,0,0,1-48.883-48.883V228.111a48.881,48.881,0,0,1,48.88-48.88H706.632a48.882,48.882,0,0,1,48.883,48.881v8.3a6.869,6.869,0,0,1-6.869,6.869H726.979a6.869,6.869,0,0,1-6.87-6.869v-8.3a13.475,13.475,0,0,0-13.475-13.475H377.041a13.476,13.476,0,0,0-13.477,13.476V828.132a13.475,13.475,0,0,0,13.475,13.475H706.632a13.476,13.476,0,0,0,13.477-13.477v-8.3a6.869,6.869,0,0,1,6.87-6.869h21.667a6.869,6.869,0,0,1,6.869,6.869v8.3a48.881,48.881,0,0,1-48.88,48.88" transform="translate(-3.324 -16.593)" fill="#ffd700"></path>
    <path id="SvgjsPath1007" data-name="Path 150" d="M929.652,263.315H818.781a6.86,6.86,0,0,0-5.05,2.215L611.4,485.332V270.178a6.863,6.863,0,0,0-6.863-6.863H516.81a6.863,6.863,0,0,0-6.864,6.863V771.055a6.87,6.87,0,0,0,6.87,6.87h87.718a6.863,6.863,0,0,0,6.863-6.863V614.72l49.255-52.931L828.412,775.3a6.865,6.865,0,0,0,5.4,2.623H944.152a4.8,4.8,0,0,0,3.791-7.756L729.022,489.007l204.134-217.6a4.8,4.8,0,0,0-3.5-8.092" transform="translate(12.896 -9.09)" fill="#fff"></path>
  </g>
</svg><style>@media (prefers-color-scheme: light) { :root { filter: none; } }
@media (prefers-color-scheme: dark) { :root { filter: none; } }
</style></svg>