<svg xmlns="http://www.w3.org/2000/svg" version="1.1" xmlns:xlink="http://www.w3.org/1999/xlink" width="32" height="32"><svg xmlns="http://www.w3.org/2000/svg" version="1.1" xmlns:xlink="http://www.w3.org/1999/xlink" width="32" height="32"><svg xmlns="http://www.w3.org/2000/svg" xmlns:xlink="http://www.w3.org/1999/xlink" viewBox="0 0 32 32">
  <defs>
    <style>
      .cls-1 {
        fill: #fff;
      }

      .cls-2 {
        fill: url(#Nepojmenovaný_přechod_714);
        opacity: .6;
      }

      .cls-3 {
        fill: #250e46;
      }

      .cls-4 {
        fill: url(#Nepojmenovaný_přechod_33);
      }
    </style>
    <linearGradient id="Nepojmenovaný_přechod_714" data-name="Nepojmenovaný přechod 714" x1="-351.94" y1=".62" x2="-351.94" y2="31.68" gradientTransform="translate(368.01 .01)" gradientUnits="userSpaceOnUse">
      <stop offset="0" stop-color="#000"></stop>
      <stop offset=".29" stop-color="#0c0528"></stop>
      <stop offset=".3" stop-color="#0b0425" stop-opacity=".93"></stop>
      <stop offset=".38" stop-color="#060214" stop-opacity=".51"></stop>
      <stop offset=".48" stop-color="#020108" stop-opacity=".22"></stop>
      <stop offset=".62" stop-color="#000001" stop-opacity=".05"></stop>
      <stop offset="1" stop-color="#000" stop-opacity="0"></stop>
    </linearGradient>
    <linearGradient id="Nepojmenovaný_přechod_33" data-name="Nepojmenovaný přechod 33" x1="16" y1="-3.81" x2="16" y2="21.16" gradientUnits="userSpaceOnUse">
      <stop offset="0" stop-color="gold"></stop>
      <stop offset="1" stop-color="gold"></stop>
    </linearGradient>
  </defs>
  <rect class="cls-3" x=".8" y=".8" width="30.41" height="30.41" rx="6.51" ry="6.51"></rect>
  <rect class="cls-2" x=".44" y=".5" width="31.25" height="31.25" rx="8.17" ry="8.17" transform="translate(32.12 32.24) rotate(180)"></rect>
  <g>
    <path class="cls-1" d="M5.49,21.47c-.77-.77-1.16-1.83-1.16-3.2h2.54c0,.65.16,1.15.49,1.52.33.37.79.55,1.37.55h2.07c.55,0,.99-.12,1.33-.35.34-.23.51-.54.51-.92v-.63c0-.61-.45-.99-1.34-1.14l-3.43-.58c-1.12-.19-1.97-.54-2.55-1.07-.58-.53-.87-1.2-.87-2.02v-1.04c0-.66.18-1.24.53-1.74.35-.5.86-.89,1.51-1.17.65-.27,1.41-.41,2.27-.41h2.11c.81,0,1.52.17,2.15.5.62.34,1.1.81,1.45,1.41.34.6.51,1.3.51,2.1h-2.54c0-.52-.14-.94-.43-1.26-.29-.32-.67-.48-1.14-.48h-2.11c-.52,0-.94.11-1.26.34-.32.22-.48.52-.48.9v.5c0,.62.43,1.01,1.29,1.16l3.41.6c1.13.2,2,.55,2.59,1.05s.9,1.15.9,1.95v1.23c0,.66-.18,1.24-.55,1.75-.37.51-.88.9-1.54,1.18-.66.28-1.42.42-2.3.42h-2.15c-1.37,0-2.44-.38-3.21-1.15Z"></path>
    <path class="cls-1" d="M25.16,22.47l-4.31-5.49-1.25,1.34v4.14h-2.57v-13.06h2.57v5.63l5.19-5.63h3.17l-5.37,5.73,5.71,7.33h-3.13Z"></path>
  </g>
  <path class="cls-4" d="M25.03,0H6.97C3.12,0,0,3.12,0,6.97v18.06C0,28.88,3.12,32,6.97,32h18.06c3.85,0,6.97-3.12,6.97-6.97V6.97c0-3.85-3.12-6.97-6.97-6.97ZM31.2,24.51c0,3.7-3,6.69-6.69,6.69H7.49c-3.7,0-6.69-3-6.69-6.69V7.49C.8,3.79,3.79.8,7.49.8h17.02c3.7,0,6.7,3,6.7,6.7v17.02Z"></path>
</svg></svg><style>@media (prefers-color-scheme: light) { :root { filter: none; } }
@media (prefers-color-scheme: dark) { :root { filter: none; } }
</style></svg>